:SAMPLES-PER-SECOND 30
:FRAME-RANGE 1-2091
:FULLY-SPECIFIED
:DEGREES
1961
root  -43.0717 38.2953 61.1529 -0.137451 27.0266 1.16812
RightUpLeg  -21.9614 7.52344 -9.64204
RightLeg  58.5371 -9.50958 -16.6962
RightFoot  -5.50347 0.220937 -5.05638
RightToes  5.38607e-012 1.2921e-014 -6.02303e-014
Spine  -0.820848 -2.37882 -0.928833
Spine1  4.81216 -3.1541 1.00654
HEad  11.4924 45.7433 -9.32028
LeftShoulder1  0.890461 -2.55512 -7.8986
LeftArm  -29.5888 -27.5106 -27.6102
LeftForeArm  -20.197 -2.56964 -2.35251
LeftHand  -0.096955 4.46386 10.2962
RightShoulder  1.44246 0.969004 27.7385
RightArm  -30.4738 -0.468754 39.5882
RightForeArm  45.4686 -1.44642 1.66122
RightHand  -0.206068 -4.11894 -17.9027
LeftUpLeg  -7.83312 -3.45719 -13.6136
LeftLeg  21.6996 7.32278 3.54071
LeftFoot  -8.86179 -0.172857 10.4273
LeftToes  -7.20997e-011 3.75522e-011 -2.80735e-011
1962
root  -41.9123 38.4842 62.935 0.272949 31.3868 0.573908
RightUpLeg  -23.193 6.64278 -6.62854
RightLeg  49.0082 -16.6802 -19.775
RightFoot  -10.3519 0.188153 -29.0671
RightToes  5.38607e-012 1.2921e-014 -6.02303e-014
Spine  -1.11353 -3.11066 -2.55076
Spine1  3.68975 -4.12266 2.57863
HEad  10.7781 44.143 -8.30275
LeftShoulder1  0.967675 -3.20452 -7.53056
LeftArm  -31.0471 -29.1912 -25.2576
LeftForeArm  -21.4812 -2.07975 -1.90733
LeftHand  -0.0761649 4.71481 10.3983
RightShoulder  1.11456 -0.0876055 28.5958
RightArm  -30.8844 -5.09695 37.9127
RightForeArm  43.828 -0.819581 1.65275
RightHand  -0.174824 -4.3328 -18.0592
LeftUpLeg  -3.43623 -4.49579 -13.4822
LeftLeg  19.4532 4.50204 2.53312
LeftFoot  -9.78774 -0.0714317 9.59807
LeftToes  -7.20997e-011 3.75522e-011 -2.80735e-011
1963
root  -40.7113 38.6554 64.6755 0.650696 35.4611 -0.610618
RightUpLeg  -24.5535 7.03137 -5.48564
RightLeg  36.0988 -17.0447 -13.152
RightFoot  -11.1953 -0.0407951 -26.0732
RightToes  5.38607e-012 1.2921e-014 -6.02303e-014
Spine  -2.265 -3.8412 -2.79388
Spine1  3.71667 -4.85352 3.46018
HEad  8.47132 42.316 -8.10027
LeftShoulder1  1.01502 -3.64277 -7.24394
LeftArm  -31.2094 -31.278 -22.563
LeftForeArm  -22.4591 0.152744 -1.73833
LeftHand  -0.104148 4.35304 10.0209
RightShoulder  0.917136 -0.687011 28.9425
RightArm  -32.0344 -9.45192 37.1037
RightForeArm  43.5934 -0.773299 1.11761
RightHand  -0.133926 -4.58399 -17.6961
LeftUpLeg  0.980436 -3.53103 -12.3097
LeftLeg  16.1038 -0.0737938 1.59172
LeftFoot  -10.2415 -0.0333552 9.88432
LeftToes  -7.20997e-011 3.75522e-011 -2.80735e-011
1964
root  -39.4752 38.6427 66.3799 1.27307 39.6281 -1.78202
RightUpLeg  -25.7221 7.21073 -5.91209
RightLeg  21.6059 -12.3514 -5.53597
RightFoot  -8.50413 0.0649356 -4.93633
RightToes  5.38607e-012 1.2921e-014 -6.02303e-014
Spine  -3.55575 -4.52752 -2.86438
Spine1  3.91908 -5.56262 4.35906
HEad  5.90172 40.2138 -8.44906
LeftShoulder1  1.04394 -3.8877 -7.13721
LeftArm  -30.3371 -33.1524 -20.9203
LeftForeArm  -23.3376 3.01369 -1.88845
LeftHand  -0.0402803 5.09696 8.3544
RightShoulder  0.802159 -1.00532 28.7448
RightArm  -32.7572 -13.7788 36.4868
RightForeArm  43.5632 -1.11613 0.697868
RightHand  -0.102905 -4.76092 -16.7557
LeftUpLeg  4.37816 -2.5725 -10.593
LeftLeg  14.0145 -5.02934 0.754969
LeftFoot  -10.9677 0.0333558 10.0286
LeftToes  -7.20997e-011 3.75522e-011 -2.80735e-011
1965
root  -38.18 38.2387 68.1689 2.23615 43.8174 -1.73767
RightUpLeg  -25.701 0.770279 -4.53625
RightLeg  8.3725 -1.84932 -1.09495
RightFoot  -10.0004 -0.176496 9.24392
RightToes  5.38607e-012 1.2921e-014 -6.02303e-014
Spine  -4.51963 -5.29028 -4.46166
Spine1  4.19997 -6.34995 5.43958
HEad  2.6814 37.8176 -10.0402
LeftShoulder1  1.03819 -3.6926 -7.49897
LeftArm  -29.3768 -34.0406 -20.7978
LeftForeArm  -22.9082 4.82581 -2.14893
LeftHand  -0.0499307 4.98582 9.20283
RightShoulder  0.678688 -1.32948 28.1401
RightArm  -33.3661 -17.1113 35.9765
RightForeArm  44.748 -2.12041 0.166364
RightHand  -0.072833 -4.96038 -16.1603
LeftUpLeg  6.90821 -1.35556 -9.13149
LeftLeg  15.0461 -10.0833 -0.745468
LeftFoot  -13.0503 0.250351 11.466
LeftToes  -7.20997e-011 3.75522e-011 -2.80735e-011
1966
root  -36.7994 37.836 69.9055 2.71457 47.7362 -1.67031
RightUpLeg  -25.9841 -1.48917 -3.80271
RightLeg  0.478246 1.94242 0.590217
RightFoot  -11.9738 -0.00714112 13.4467
RightToes  5.38607e-012 1.2921e-014 -6.02303e-014
Spine  -5.07409 -5.81306 -5.21547
Spine1  4.85063 -6.93466 6.12618
HEad  -0.472501 35.6805 -12.1589
LeftShoulder1  1.1157 -3.98236 -8.03076
LeftArm  -28.1827 -32.8432 -22.0237
LeftForeArm  -21.4273 5.3707 -2.46031
LeftHand  -0.00336371 5.55371 10.7073
RightShoulder  0.515754 -1.8294 28.6344
RightArm  -32.7493 -19.5376 34.0194
RightForeArm  45.3582 -2.83938 0.158117
RightHand  -0.0405745 -5.19092 -15.3067
LeftUpLeg  9.79707 -2.19538 -8.01803
LeftLeg  16.214 -12.916 -1.64987
LeftFoot  -14.4052 0.388374 11.2346
LeftToes  -7.20997e-011 3.75522e-011 -2.80735e-011
1967
root  -35.3188 37.337 71.606 3.30487 50.7574 -1.29954
RightUpLeg  -27.6758 -0.588771 -3.31504
RightLeg  1.22854 2.49206 0.1062
RightFoot  -13.6263 0.170029 13.1304
RightToes  5.38607e-012 1.2921e-014 -6.02303e-014
Spine  -5.55553 -6.08919 -5.23165
Spine1  5.47627 -7.2073 6.13061
HEad  -2.72178 34.1643 -14.28
LeftShoulder1  1.17781 -3.95212 -9.05985
LeftArm  -26.1752 -29.7665 -24.5146
LeftForeArm  -17.753 5.31165 -3.00601
LeftHand  -0.0597567 4.8688 9.49233
RightShoulder  0.402669 -2.15252 28.4789
RightArm  -32.0167 -21.0807 32.5318
RightForeArm  45.7853 -4.2057 0.107341
RightHand  0.041723 -5.82202 -15.4356
LeftUpLeg  12.2314 -5.77047 -8.13932
LeftLeg  18.4683 -11.9464 -2.39214
LeftFoot  -15.0985 0.414915 9.84974
LeftToes  -7.20997e-011 3.75522e-011 -2.80735e-011
1968
root  -33.7345 36.9048 73.2349 2.96625 53.1025 -1.7318
RightUpLeg  -30.0303 -0.833221 -2.21016
RightLeg  9.05977 4.55699 0.927776
RightFoot  -10.502 -0.14192 9.59065
RightToes  5.38607e-012 1.2921e-014 -6.02303e-014
Spine  -5.69368 -6.16506 -3.34705
Spine1  6.10036 -7.25134 5.05435
HEad  -3.89843 33.4148 -15.968
LeftShoulder1  1.13422 -2.94969 -11.1784
LeftArm  -22.9191 -26.5638 -26.5823
LeftForeArm  -14.3205 6.25268 -4.09969
LeftHand  -0.0511401 4.97286 9.29304
RightShoulder  0.362258 -2.25379 27.9085
RightArm  -31.383 -22.3183 31.2188
RightForeArm  45.7321 -5.19208 0.103201
RightHand  0.20516 -7.06175 -15.5179
LeftUpLeg  14.6424 -9.52512 -7.89479
LeftLeg  21.0226 -10.3075 -3.89024
LeftFoot  -13.8373 0.246605 7.48465
LeftToes  -7.20997e-011 3.75522e-011 -2.80735e-011
1969
root  -32.2761 36.7185 74.7197 0.0464478 55.6478 -4.71323
RightUpLeg  -32.4532 7.18903 -3.59161
RightLeg  18.4745 -1.7583 -0.865336
RightFoot  -0.679342 -1.10774 11.7826
RightToes  5.38607e-012 1.2921e-014 -6.02303e-014
Spine  -4.02378 -5.96363 -0.335585
Spine1  5.70983 -7.3149 5.39117
HEad  -4.61044 32.7734 -17.7313
LeftShoulder1  1.10359 -2.14698 -13.5067
LeftArm  -19.2233 -22.1551 -28.8274
LeftForeArm  -12.0149 6.54237 -5.52025
LeftHand  -0.0228714 5.34222 9.53845
RightShoulder  0.279351 -2.48724 27.3747
RightArm  -30.2218 -23.0273 29.3613
RightForeArm  44.6421 -5.58877 0.419647
RightHand  0.221096 -7.20831 -15.3224
LeftUpLeg  14.7932 -7.96758 -3.58563
LeftLeg  27.0564 -13.7709 -7.20196
LeftFoot  -9.53404 0.0346761 1.43515
LeftToes  -7.20997e-011 3.75522e-011 -2.80735e-011
1970
root  -30.7637 36.2915 76.2318 -4.6897 56.9355 -9.16869
RightUpLeg  -33.5091 6.11231 0.114478
RightLeg  28.6205 -0.957982 -0.79682
RightFoot  -0.7321 -0.887487 9.48369
RightToes  5.38607e-012 1.2921e-014 -6.02303e-014
Spine  -2.65122 -5.44956 3.02992
Spine1  5.90201 -6.68046 4.599
HEad  -6.21663 32.3285 -19.3873
LeftShoulder1  1.17815 -2.05002 -15.4368
LeftArm  -17.7283 -16.2681 -30.8664
LeftForeArm  -8.23919 6.71046 -6.08735
LeftHand  0.0705002 6.42143 10.4023
RightShoulder  0.33627 -2.32185 27.5827
RightArm  -30.0544 -20.403 27.8024
RightForeArm  44.3293 -5.57544 0.298868
RightHand  0.153714 -6.65124 -15.7291
LeftUpLeg  11.1402 -4.40485 2.66844
LeftLeg  40.5124 -15.4428 -13.3576
LeftFoot  -2.98896 0.583465 -7.73829
LeftToes  -7.20997e-011 3.75522e-011 -2.80735e-011
1971
root  -29.4708 36.193 77.4236 -8.36746 59.5948 -13.1715
RightUpLeg  -32.796 4.25549 2.88026
RightLeg  33.6682 -1.91396 -1.62323
RightFoot  -3.26559 -0.368831 4.90562
RightToes  5.38607e-012 1.2921e-014 -6.02303e-014
Spine  -2.42734 -5.63689 5.15434
Spine1  7.71583 -6.92943 5.06226
HEad  -6.81146 32.2727 -18.6033
LeftShoulder1  1.22067 -2.07256 -16.1998
LeftArm  -15.4827 -10.3189 -31.7161
LeftForeArm  -4.58559 6.95606 -7.20354
LeftHand  0.0741744 6.53193 9.8802
RightShoulder  0.459848 -1.94417 27.3673
RightArm  -30.7911 -17.1311 28.0634
RightForeArm  44.5375 -5.51311 -0.0360488
RightHand  0.252427 -7.21809 -17.0581
LeftUpLeg  3.58761 -5.77948 5.62016
LeftLeg  53.3163 -10.4204 -14.1977
LeftFoot  8.56211 2.67064 -15.4421
LeftToes  -7.20997e-011 3.75522e-011 -2.80735e-011
